<?xml version="1.0" standalone="no"?><!DOCTYPE svg PUBLIC "-//W3C//DTD SVG 1.1//EN" "http://www.w3.org/Graphics/SVG/1.1/DTD/svg11.dtd"><svg t="1650525231977" class="icon" viewBox="0 0 1024 1024" version="1.1" xmlns="http://www.w3.org/2000/svg" p-id="17350" xmlns:xlink="http://www.w3.org/1999/xlink" width="200" height="200"><defs><style type="text/css">@font-face { font-family: feedback-iconfont; src: url("//at.alicdn.com/t/font_1031158_u69w8yhxdu.woff2?t=1630033759944") format("woff2"), url("//at.alicdn.com/t/font_1031158_u69w8yhxdu.woff?t=1630033759944") format("woff"), url("//at.alicdn.com/t/font_1031158_u69w8yhxdu.ttf?t=1630033759944") format("truetype"); }
</style></defs><path d="M76.8 76.8h870.4v870.4H76.8z" fill="#FFDD50" p-id="17351"></path><path d="M559.97952 312.51968a150.86592 150.73792 0 1 0 301.73184 0 150.86592 150.73792 0 1 0-301.73184 0Z" fill="" p-id="17352"></path><path d="M161.3312 710.8352a150.86592 150.73792 0 1 0 301.73184 0 150.86592 150.73792 0 1 0-301.73184 0Z" fill="" p-id="17353"></path><path d="M942.05952 330.4448H81.94048c-9.9072 0-17.94048-8.02304-17.94048-17.92512s8.03328-17.92512 17.94048-17.92512h860.11904c9.9072 0 17.94048 8.02304 17.94048 17.92512s-8.03328 17.92512-17.94048 17.92512z" fill="" p-id="17354"></path><path d="M312.19712 960a17.93536 17.93536 0 0 1-17.94048-17.92512V81.92512a17.93024 17.93024 0 0 1 17.94048-17.92512 17.93024 17.93024 0 0 1 17.94048 17.92512v860.14976a17.93536 17.93536 0 0 1-17.94048 17.92512z" fill="" p-id="17355"></path><path d="M942.05952 728.76032H81.94048c-9.9072 0-17.94048-8.02816-17.94048-17.92512s8.03328-17.92512 17.94048-17.92512h860.11904c9.9072 0 17.94048 8.02816 17.94048 17.92512s-8.03328 17.92512-17.94048 17.92512z" fill="" p-id="17356"></path><path d="M710.84544 960a17.93536 17.93536 0 0 1-17.94048-17.92512V81.92512c0-9.90208 8.03328-17.92512 17.94048-17.92512s17.94048 8.02304 17.94048 17.92512v860.14976a17.94048 17.94048 0 0 1-17.94048 17.92512z" fill="" p-id="17357"></path><path d="M179.80416 312.51968a132.39296 132.28032 0 1 0 264.78592 0 132.39296 132.28032 0 1 0-264.78592 0Z" fill="#FFFFFF" p-id="17358"></path><path d="M312.19712 197.632c63.40096 0 114.98496 51.53792 114.98496 114.88768s-51.584 114.8928-114.98496 114.8928-114.99008-51.54304-114.99008-114.8928S248.79104 197.632 312.19712 197.632m0-35.85024c-83.31776 0-150.86592 67.48672-150.86592 150.73792 0 83.2512 67.54304 150.73792 150.86592 150.73792 83.31776 0 150.86592-67.48672 150.86592-150.73792-0.00512-83.2512-67.54816-150.73792-150.86592-150.73792z" fill="" p-id="17359"></path><path d="M578.67264 710.8352a132.1728 132.06528 0 1 0 264.3456 0 132.1728 132.06528 0 1 0-264.3456 0Z" fill="#FFFFFF" p-id="17360"></path><path d="M710.84544 595.94752c63.40096 0 114.98496 51.53792 114.98496 114.88768s-51.584 114.88768-114.98496 114.88768c-63.40608 0-114.98496-51.53792-114.98496-114.88768s51.57888-114.88768 114.98496-114.88768m0-35.85024c-83.31776 0-150.86592 67.48672-150.86592 150.73792 0 83.2512 67.54304 150.73792 150.86592 150.73792s150.86592-67.48672 150.86592-150.73792c-0.00512-83.2512-67.54816-150.73792-150.86592-150.73792z" fill="" p-id="17361"></path></svg>